<svg width="43" height="28" viewBox="0 0 43 28" fill="none" xmlns="http://www.w3.org/2000/svg">
<path d="M26.4796 18.9747C32.2756 15.723 39.6088 17.7365 42.9317 23.4919L37.931 26.379C32.1084 29.7407 24.6617 27.7037 21.3608 21.8465L26.4796 18.9747Z" fill="#009DFF"/>
<path d="M24.3594 16.6949C27.6704 10.96 35.0035 8.99514 40.7383 12.3061L37.7407 17.498C34.4297 23.2329 27.0966 25.1978 21.3618 21.8868L24.3594 16.6949Z" fill="#009DFF" fill-opacity="0.8"/>
<path d="M21.1025 16.1395C21.1025 9.18424 26.7409 3.5459 33.6961 3.5459V9.42288C33.6961 16.3781 28.0578 22.0165 21.1025 22.0165V16.1395Z" fill="#009DFF" fill-opacity="0.8"/>
<path d="M18.1313 16.3789C14.8203 10.6441 16.7852 3.311 22.52 0L25.5176 5.1919C28.8286 10.9267 26.8637 18.2598 21.1289 21.5708L18.1313 16.3789Z" fill="#009DFF" fill-opacity="0.8"/>
<path d="M21.1026 15.2999C21.1026 8.80835 15.8402 3.5459 9.34863 3.5459V10.2625C9.34863 16.754 14.6111 22.0165 21.1026 22.0165V15.2999Z" fill="#009DFF" fill-opacity="0.8"/>
<path d="M18.5725 16.6949C15.2615 10.96 7.92843 8.99514 2.1936 12.3061L5.19115 17.498C8.50215 23.2329 15.8352 25.1978 21.5701 21.8868L18.5725 16.6949Z" fill="#009DFF" fill-opacity="0.8"/>
<path d="M16.452 18.9747C10.6561 15.723 3.32289 17.7365 0 23.4919L5.00071 26.379C10.8232 29.7407 18.27 27.7037 21.5708 21.8465L16.452 18.9747Z" fill="#009DFF"/>
</svg>
